<svg xmlns="http://www.w3.org/2000/svg" width="1088" height="687.962" viewBox="0 0 1088 687.962">
  <title>Easy to Use</title>

<g transform="translate(0.000000,200.000000) scale(0.100000,-0.100000)"
fill="#000000" stroke="none">
<path d="M360 1402 c0 -25 -5 -35 -19 -39 -37 -9 -39 -66 -3 -71 21 -3 22 -8
22 -112 0 -101 2 -111 24 -137 23 -26 29 -28 103 -28 l78 0 3 42 c3 42 3 43
-22 33 -17 -6 -35 -6 -51 0 -24 9 -25 12 -25 105 l0 95 50 0 50 0 0 35 0 35
-50 0 -50 0 0 35 c0 21 -5 35 -12 36 -103 5 -98 7 -98 -29z"/>
<path d="M1070 1402 c0 -25 -5 -35 -20 -39 -15 -4 -20 -14 -20 -39 0 -27 4
-34 20 -34 19 0 20 -7 20 -109 0 -101 2 -112 23 -137 19 -22 34 -28 80 -32 31
-2 68 -2 82 2 21 5 25 12 25 45 0 38 -1 39 -28 32 -15 -5 -37 -4 -50 0 -21 8
-22 14 -22 104 l0 95 50 0 50 0 0 35 0 35 -50 0 -50 0 0 35 c0 21 -5 35 -12
36 -95 8 -98 7 -98 -29z"/>
<path d="M707 1356 c-44 -16 -74 -41 -92 -76 -80 -159 77 -331 228 -250 31 17
37 17 37 5 0 -11 12 -15 45 -15 l45 0 0 170 0 170 -50 0 c-36 0 -50 -4 -50
-14 0 -11 -8 -10 -37 5 -44 22 -74 23 -126 5z m141 -98 c40 -38 25 -134 -25
-157 -37 -17 -59 -13 -92 15 -26 21 -31 33 -31 68 0 92 83 134 148 74z"/>
<path d="M1421 1357 c-82 -26 -133 -124 -110 -210 16 -59 42 -92 92 -116 112
-54 248 1 276 113 36 146 -104 262 -258 213z m118 -82 c35 -18 55 -64 47 -108
-9 -48 -39 -72 -91 -72 -52 0 -82 24 -91 71 -9 50 3 82 39 104 38 24 59 25 96
5z"/>
<path d="M339 920 c-1 -5 -1 -17 -1 -25 0 -8 0 -85 1 -170 l1 -155 80 0 c95 0
134 14 177 63 74 84 49 232 -47 282 -34 17 -209 22 -211 5z m226 -62 c43 -46
54 -106 30 -166 -25 -60 -65 -82 -154 -82 l-71 0 0 146 0 146 81 -4 c78 -3 82
-4 114 -40z"/>
<path d="M785 916 c-98 -45 -134 -176 -72 -266 33 -50 70 -72 125 -78 75 -7
172 35 172 74 0 21 -18 17 -51 -11 -77 -64 -212 -25 -234 68 l-7 27 156 0 156
0 0 38 c0 44 -34 107 -72 135 -35 26 -130 33 -173 13z m142 -36 c33 -20 56
-50 68 -87 l6 -23 -140 0 c-157 0 -161 2 -122 66 37 60 127 82 188 44z"/>
<path d="M1119 902 c-26 -23 -33 -37 -33 -65 0 -48 26 -74 93 -93 90 -26 111
-40 111 -74 0 -73 -109 -92 -175 -30 -31 29 -51 11 -26 -22 29 -36 73 -51 133
-46 43 5 57 11 81 38 24 27 28 39 24 67 -9 50 -21 61 -101 84 -83 25 -106 42
-106 79 0 36 20 51 73 57 36 4 48 1 73 -20 41 -35 65 -21 31 18 -20 24 -33 29
-84 33 -56 4 -63 2 -94 -26z"/>
<path d="M1400 755 c0 -167 1 -175 20 -175 17 0 19 8 22 81 l3 80 85 -80 c59
-55 93 -80 110 -80 21 -1 11 12 -67 85 -51 47 -93 89 -93 93 0 4 38 40 85 81
47 41 85 77 85 82 0 25 -43 -1 -122 -73 l-88 -81 0 81 c0 74 -2 81 -20 81 -19
0 -20 -7 -20 -175z"/>
</g>
</svg>
